<?xml version="1.0" encoding="utf-8"?>
<!-- Generator: Adobe Illustrator 16.0.0, SVG Export Plug-In . SVG Version: 6.00 Build 0)  -->
<!DOCTYPE svg PUBLIC "-//W3C//DTD SVG 1.1//EN" "http://www.w3.org/Graphics/SVG/1.1/DTD/svg11.dtd">
<svg version="1.1" id="Layer_1" xmlns="http://www.w3.org/2000/svg" xmlns:xlink="http://www.w3.org/1999/xlink" x="0px" y="0px"
	 width="52px" height="52px" viewBox="0 0 52 52" enable-background="new 0 0 52 52" xml:space="preserve">
<g>
	<g>
		<g>
			<path fill="#BF0811" d="M26,0C11.664,0,0,11.663,0,26s11.664,26,26,26s26-11.663,26-26S40.336,0,26,0z M26,50
				C12.767,50,2,39.233,2,26C2,12.767,12.767,2,26,2s24,10.767,24,24C50,39.233,39.233,50,26,50z M35.707,16.293
				c-0.391-0.391-1.023-0.391-1.414,0L26,24.586l-8.293-8.293c-0.391-0.391-1.023-0.391-1.414,0s-0.391,1.023,0,1.414L24.586,26
				l-8.293,8.293c-0.391,0.391-0.391,1.023,0,1.414C16.488,35.902,16.744,36,17,36s0.512-0.098,0.707-0.293L26,27.414l8.293,8.293
				C34.488,35.902,34.744,36,35,36s0.512-0.098,0.707-0.293c0.391-0.391,0.391-1.023,0-1.414L27.414,26l8.293-8.293
				C36.098,17.316,36.098,16.684,35.707,16.293z"/>
		</g>
	</g>
</g>
</svg>
