<?xml version="1.0" encoding="utf-8"?>
<!-- Generator: Adobe Illustrator 16.0.0, SVG Export Plug-In . SVG Version: 6.00 Build 0)  -->
<!DOCTYPE svg PUBLIC "-//W3C//DTD SVG 1.1//EN" "http://www.w3.org/Graphics/SVG/1.1/DTD/svg11.dtd">
<svg version="1.1" id="Layer_4" xmlns="http://www.w3.org/2000/svg" xmlns:xlink="http://www.w3.org/1999/xlink" x="0px" y="0px"
	 width="118px" height="38px" viewBox="0 0 118 38" enable-background="new 0 0 118 38" xml:space="preserve">
<g>
	<path fill="#FFFFFF" d="M43.504,18.861c-4.976,0-9.009,4.034-9.009,9.009s4.034,9.01,9.009,9.01s9.009-4.034,9.009-9.01
		C52.513,22.896,48.479,18.861,43.504,18.861z M43.504,32.822c-2.735,0-4.952-2.217-4.952-4.952c0-2.734,2.217-4.951,4.952-4.951
		c2.734,0,4.952,2.217,4.952,4.951C48.456,30.605,46.239,32.822,43.504,32.822z"/>
	<path fill="#FFFFFF" d="M1,18.84h7.379c4.309,0,6.915,2.555,6.915,6.244v0.052c0,4.181-3.252,6.347-7.303,6.347H4.974V36.9H1V18.84
		z M8.121,27.947c1.986,0,3.147-1.188,3.147-2.734v-0.052c0-1.78-1.238-2.734-3.225-2.734h-3.07v5.521L8.121,27.947L8.121,27.947z"
		/>
	<path fill="#FFFFFF" d="M17.38,18.84h8.257c2.296,0,4.076,0.646,5.263,1.831c1.005,1.007,1.547,2.427,1.547,4.13v0.051
		c0,2.916-1.573,4.748-3.87,5.6l4.412,6.449h-4.644l-3.871-5.779h-3.122V36.9H17.38V18.84z M25.378,27.611
		c1.935,0,3.044-1.03,3.044-2.555v-0.052c0-1.702-1.187-2.579-3.122-2.579h-3.947v5.186H25.378z"/>
	<path fill="#FFFFFF" d="M54.6,18.84h7.38c4.308,0,6.914,2.555,6.914,6.244v0.052c0,4.181-3.252,6.347-7.303,6.347h-3.019V36.9H54.6
		V18.84z M61.721,27.947c1.986,0,3.148-1.188,3.148-2.734v-0.052c0-1.78-1.239-2.734-3.227-2.734h-3.069v5.521L61.721,27.947
		L61.721,27.947z"/>
	<path fill="#FFFFFF" d="M88.807,18.84h7.379c4.308,0,6.914,2.555,6.914,6.244v0.052c0,4.181-3.252,6.347-7.303,6.347h-3.02V36.9
		h-3.973V18.84H88.807z M95.926,27.947c1.986,0,3.148-1.188,3.148-2.734v-0.052c0-1.78-1.239-2.734-3.227-2.734h-3.07v5.521
		L95.926,27.947L95.926,27.947z"/>
	<g>
		<circle fill="#FFFFFF" cx="107.979" cy="9.862" r="2.141"/>
		<path fill="#FFFFFF" d="M107.991,0.815c-4.976,0-9.011,4.034-9.011,9.01c0,4.976,4.035,9.009,9.011,9.009
			c4.975,0,9.009-4.033,9.009-9.009C117,4.849,112.966,0.815,107.991,0.815z M107.991,14.764c-0.771,0-1.503-0.178-2.152-0.494
			l-0.012,0.012c-0.007,1.518-1.24,2.748-2.761,2.748v-5.521V9.862l0,0c0-0.008,0-0.015,0-0.022c0-2.72,2.205-4.924,4.925-4.924
			c2.719,0,4.923,2.204,4.923,4.924C112.914,12.559,110.71,14.764,107.991,14.764z"/>
	</g>
	<path fill="#FFFFFF" d="M82.745,18.84v10.348c0,2.862-1.472,4.334-3.896,4.334c-2.427,0-3.896-1.521-3.896-4.465v-8.229
		c0-1.097-0.893-1.986-1.989-1.986c-0.001,0,0.001,0,0,0h-4.51v0.001c0,1.547,1.08,2.838,2.526,3.166v7.153
		c0,5.313,2.965,8.024,7.816,8.024s7.921-2.685,7.921-8.153V18.84H82.745z"/>
</g>
</svg>
